HIERARCHY
ROOT Hips
{
	OFFSET 0.000000 0.000000 0.000000
	CHANNELS 6 Xposition Yposition Zposition Zrotation Yrotation Xrotation 
	JOINT Spine1
	{
		OFFSET -0.013727 5.003763 -0.053727
		CHANNELS 3 Zrotation Yrotation Xrotation
		JOINT Spine2
		{
			OFFSET -0.000000 7.125302 -0.029825
			CHANNELS 3 Zrotation Yrotation Xrotation
			JOINT Chest
			{
				OFFSET -0.000001 7.550063 -0.815971
				CHANNELS 3 Zrotation Yrotation Xrotation
				JOINT Neck1
				{
					OFFSET -0.181677 26.311296 -0.553348
					CHANNELS 3 Zrotation Yrotation Xrotation
					JOINT Neck2
					{
						OFFSET -0.000003 7.709398 2.302585
						CHANNELS 3 Zrotation Yrotation Xrotation
						JOINT Head
						{
							OFFSET -0.000005 6.128912 1.953709
							CHANNELS 3 Zrotation Yrotation Xrotation
							JOINT HeadEnd
							{
								OFFSET 0.003598 16.065403 -1.835380
								CHANNELS 3 Zrotation Yrotation Xrotation
								End Site
								{
									OFFSET 0.000000 0.000000 0.000000
								}
							}
							JOINT Jaw
							{
								OFFSET 0.002637 0.475592 3.094941
								CHANNELS 3 Zrotation Yrotation Xrotation
								End Site
								{
									OFFSET 0.000000 0.000000 0.000000
								}
							}
							JOINT LeftEye
							{
								OFFSET 3.206381 5.380208 7.586883
								CHANNELS 3 Zrotation Yrotation Xrotation
								End Site
								{
									OFFSET 0.000000 0.000000 0.000000
								}
							}
							JOINT RightEye
							{
								OFFSET -3.222440 5.361867 7.558233
								CHANNELS 3 Zrotation Yrotation Xrotation
								End Site
								{
									OFFSET 0.000000 0.000000 0.000000
								}
							}
						}
					}
				}
				JOINT LeftShoulder
				{
					OFFSET 1.621651 23.237165 5.113413
					CHANNELS 3 Zrotation Yrotation Xrotation
					JOINT LeftArm
					{
						OFFSET 14.919845 -0.000001 -5.502326
						CHANNELS 3 Zrotation Yrotation Xrotation
						JOINT LeftForeArm
						{
							OFFSET 28.739309 0.000004 -0.002588
							CHANNELS 3 Zrotation Yrotation Xrotation
							JOINT LeftHand
							{
								OFFSET 27.093983 -0.000003 0.002609
								CHANNELS 3 Zrotation Yrotation Xrotation
								JOINT LeftHandThumb1
								{
									OFFSET 2.276480 -1.392046 3.191413
									CHANNELS 3 Zrotation Yrotation Xrotation
									JOINT LeftHandThumb2
									{
										OFFSET 4.012841 -1.828126 1.641655
										CHANNELS 3 Zrotation Yrotation Xrotation
										JOINT LeftHandThumb3
										{
											OFFSET 2.798517 0.000002 -0.000003
											CHANNELS 3 Zrotation Yrotation Xrotation
											JOINT LeftHandThumbEnd
											{
												OFFSET 3.180790 -0.000003 0.000002
												CHANNELS 3 Zrotation Yrotation Xrotation
												End Site
												{
													OFFSET 0.000000 0.000000 0.000000
												}
											}
										}
									}
								}
								JOINT LeftHandIndex1
								{
									OFFSET 3.247553 -0.531998 2.296169
									CHANNELS 3 Zrotation Yrotation Xrotation
									JOINT LeftHandIndex2
									{
										OFFSET 6.364580 0.012062 0.178600
										CHANNELS 3 Zrotation Yrotation Xrotation
										JOINT LeftHandIndex3
										{
											OFFSET 3.662366 0.000000 -0.000001
											CHANNELS 3 Zrotation Yrotation Xrotation
											JOINT LeftHandIndex4
											{
												OFFSET 2.329242 0.000002 0.000004
												CHANNELS 3 Zrotation Yrotation Xrotation
												JOINT LeftHandIndexEnd
												{
													OFFSET 2.759619 -0.180539 -0.113023
													CHANNELS 3 Zrotation Yrotation Xrotation
													End Site
													{
														OFFSET 0.000000 0.000000 0.000000
													}
												}
											}
										}
									}
								}
								JOINT LeftHandMiddle1
								{
									OFFSET 3.163499 0.240982 1.000332
									CHANNELS 3 Zrotation Yrotation Xrotation
									JOINT LeftHandMiddle2
									{
										OFFSET 6.190778 -0.259276 -1.002548
										CHANNELS 3 Zrotation Yrotation Xrotation
										JOINT LeftHandMiddle3
										{
											OFFSET 4.356523 -0.000006 0.000001
											CHANNELS 3 Zrotation Yrotation Xrotation
											JOINT LeftHandMiddle4
											{
												OFFSET 2.996875 -0.000007 0.000001
												CHANNELS 3 Zrotation Yrotation Xrotation
												JOINT LeftHandMiddleEnd
												{
													OFFSET 2.304294 -0.294571 -0.031740
													CHANNELS 3 Zrotation Yrotation Xrotation
													End Site
													{
														OFFSET 0.000000 0.000000 0.000000
													}
												}
											}
										}
									}
								}
								JOINT LeftHandRing1
								{
									OFFSET 2.882641 -0.053650 -0.322543
									CHANNELS 3 Zrotation Yrotation Xrotation
									JOINT LeftHandRing2
									{
										OFFSET 5.854541 -0.486204 -1.373841
										CHANNELS 3 Zrotation Yrotation Xrotation
										JOINT LeftHandRing3
										{
											OFFSET 4.350581 0.000001 0.000003
											CHANNELS 3 Zrotation Yrotation Xrotation
											JOINT LeftHandRing4
											{
												OFFSET 2.651324 0.000007 0.000004
												CHANNELS 3 Zrotation Yrotation Xrotation
												JOINT LeftHandRingEnd
												{
													OFFSET 1.936111 0.077685 -0.000070
													CHANNELS 3 Zrotation Yrotation Xrotation
													End Site
													{
														OFFSET 0.000000 0.000000 0.000000
													}
												}
											}
										}
									}
								}
								JOINT LeftHandPinky1
								{
									OFFSET 2.865499 -0.310004 -1.600378
									CHANNELS 3 Zrotation Yrotation Xrotation
									JOINT LeftHandPinky2
									{
										OFFSET 5.087853 -1.331141 -1.771231
										CHANNELS 3 Zrotation Yrotation Xrotation
										JOINT LeftHandPinky3
										{
											OFFSET 3.070975 0.000003 0.000001
											CHANNELS 3 Zrotation Yrotation Xrotation
											JOINT LeftHandPinky4
											{
												OFFSET 1.549667 0.000000 0.000001
												CHANNELS 3 Zrotation Yrotation Xrotation
												JOINT LeftHandPinkyEnd
												{
													OFFSET 1.944894 -0.157802 0.057219
													CHANNELS 3 Zrotation Yrotation Xrotation
													End Site
													{
														OFFSET 0.000000 0.000000 0.000000
													}
												}
											}
										}
									}
								}
							}
						}
					}
				}
				JOINT RightShoulder
				{
					OFFSET -1.380118 23.180309 5.214158
					CHANNELS 3 Zrotation Yrotation Xrotation
					JOINT RightArm
					{
						OFFSET -15.037197 0.000012 -5.545604
						CHANNELS 3 Zrotation Yrotation Xrotation
						JOINT RightForeArm
						{
							OFFSET -28.736639 0.000004 -0.002597
							CHANNELS 3 Zrotation Yrotation Xrotation
							JOINT RightHand
							{
								OFFSET -27.133617 -0.000000 0.002612
								CHANNELS 3 Zrotation Yrotation Xrotation
								JOINT RightHandThumb1
								{
									OFFSET -2.274036 -1.383990 3.163128
									CHANNELS 3 Zrotation Yrotation Xrotation
									JOINT RightHandThumb2
									{
										OFFSET -4.011429 -1.827468 1.640914
										CHANNELS 3 Zrotation Yrotation Xrotation
										JOINT RightHandThumb3
										{
											OFFSET -2.794935 -0.000003 -0.000003
											CHANNELS 3 Zrotation Yrotation Xrotation
											JOINT RightHandThumbEnd
											{
												OFFSET -3.183855 0.000003 0.000000
												CHANNELS 3 Zrotation Yrotation Xrotation
												End Site
												{
													OFFSET 0.000000 0.000000 0.000000
												}
											}
										}
									}
								}
								JOINT RightHandIndex1
								{
									OFFSET -3.253269 -0.520060 2.282866
									CHANNELS 3 Zrotation Yrotation Xrotation
									JOINT RightHandIndex2
									{
										OFFSET -6.341918 0.012473 0.178265
										CHANNELS 3 Zrotation Yrotation Xrotation
										JOINT RightHandIndex3
										{
											OFFSET -3.654875 -0.000009 -0.000001
											CHANNELS 3 Zrotation Yrotation Xrotation
											JOINT RightHandIndex4
											{
												OFFSET -2.327586 -0.000000 0.000000
												CHANNELS 3 Zrotation Yrotation Xrotation
												JOINT RightHandIndexEnd
												{
													OFFSET -2.761788 -0.180657 -0.113079
													CHANNELS 3 Zrotation Yrotation Xrotation
													End Site
													{
														OFFSET 0.000000 0.000000 0.000000
													}
												}
											}
										}
									}
								}
								JOINT RightHandMiddle1
								{
									OFFSET -3.168106 0.246593 1.001030
									CHANNELS 3 Zrotation Yrotation Xrotation
									JOINT RightHandMiddle2
									{
										OFFSET -6.180830 -0.258836 -1.000896
										CHANNELS 3 Zrotation Yrotation Xrotation
										JOINT RightHandMiddle3
										{
											OFFSET -4.348905 -0.000001 -0.000001
											CHANNELS 3 Zrotation Yrotation Xrotation
											JOINT RightHandMiddle4
											{
												OFFSET -3.000243 -0.000002 -0.000003
												CHANNELS 3 Zrotation Yrotation Xrotation
												JOINT RightHandMiddleEnd
												{
													OFFSET -2.302517 -0.294372 -0.031706
													CHANNELS 3 Zrotation Yrotation Xrotation
													End Site
													{
														OFFSET 0.000000 0.000000 0.000000
													}
												}
											}
										}
									}
								}
								JOINT RightHandRing1
								{
									OFFSET -2.885693 -0.067952 -0.308858
									CHANNELS 3 Zrotation Yrotation Xrotation
									JOINT RightHandRing2
									{
										OFFSET -5.854196 -0.486133 -1.373731
										CHANNELS 3 Zrotation Yrotation Xrotation
										JOINT RightHandRing3
										{
											OFFSET -4.338814 -0.000003 -0.000000
											CHANNELS 3 Zrotation Yrotation Xrotation
											JOINT RightHandRing4
											{
												OFFSET -2.654906 -0.000005 0.000003
												CHANNELS 3 Zrotation Yrotation Xrotation
												JOINT RightHandRingEnd
												{
													OFFSET -1.933569 0.077523 -0.000052
													CHANNELS 3 Zrotation Yrotation Xrotation
													End Site
													{
														OFFSET 0.000000 0.000000 0.000000
													}
												}
											}
										}
									}
								}
								JOINT RightHandPinky1
								{
									OFFSET -2.866428 -0.342799 -1.584145
									CHANNELS 3 Zrotation Yrotation Xrotation
									JOINT RightHandPinky2
									{
										OFFSET -5.091370 -1.332053 -1.772385
										CHANNELS 3 Zrotation Yrotation Xrotation
										JOINT RightHandPinky3
										{
											OFFSET -3.062667 -0.000007 -0.000000
											CHANNELS 3 Zrotation Yrotation Xrotation
											JOINT RightHandPinky4
											{
												OFFSET -1.546526 0.000005 -0.000003
												CHANNELS 3 Zrotation Yrotation Xrotation
												JOINT RightHandPinkyEnd
												{
													OFFSET -1.945122 -0.157721 0.057211
													CHANNELS 3 Zrotation Yrotation Xrotation
													End Site
													{
														OFFSET 0.000000 0.000000 0.000000
													}
												}
											}
										}
									}
								}
							}
						}
					}
				}
			}
		}
	}
	JOINT LeftLeg
	{
		OFFSET 10.043214 -8.434525 2.595655
		CHANNELS 3 Zrotation Yrotation Xrotation
		JOINT LeftShin
		{
			OFFSET -0.000002 -43.221752 -0.802913
			CHANNELS 3 Zrotation Yrotation Xrotation
			JOINT LeftFoot
			{
				OFFSET 0.000001 -42.155094 -3.481522
				CHANNELS 3 Zrotation Yrotation Xrotation
				JOINT LeftToeBase
				{
					OFFSET 0.000000 -5.059474 13.231529
					CHANNELS 3 Zrotation Yrotation Xrotation
					JOINT LeftToeEnd
					{
						OFFSET -0.009607 -1.647615 6.513017
						CHANNELS 3 Zrotation Yrotation Xrotation
						End Site
						{
							OFFSET 0.000000 0.000000 0.000000
						}
					}
				}
			}
		}
	}
	JOINT RightLeg
	{
		OFFSET -10.047277 -8.295259 2.620317
		CHANNELS 3 Zrotation Yrotation Xrotation
		JOINT RightShin
		{
			OFFSET 0.000000 -43.362209 -0.805555
			CHANNELS 3 Zrotation Yrotation Xrotation
			JOINT RightFoot
			{
				OFFSET 0.000002 -42.117393 -3.478398
				CHANNELS 3 Zrotation Yrotation Xrotation
				JOINT RightToeBase
				{
					OFFSET -0.000001 -5.079609 13.284196
					CHANNELS 3 Zrotation Yrotation Xrotation
					JOINT RightToeEnd
					{
						OFFSET 0.009532 -1.634383 6.460591
						CHANNELS 3 Zrotation Yrotation Xrotation
						End Site
						{
							OFFSET 0.000000 0.000000 0.000000
						}
					}
				}
			}
		}
	}
}
MOTION
Frames: 4
Frame Time: 0.033333
-4.358645 93.093529 3.843596 5.694930 0.190184 -7.828811 -4.563738 -0.030780 -0.351786 -1.671023 -1.374473 -4.758652 -5.878377 -3.046070 7.921298 5.728334 -0.192781 11.999409 -1.184908 -2.803295 -3.794707 2.169236 -4.313862 -4.185631 0.000077 -0.000023 0.000006 -0.018221 0.061267 0.003820 0.711988 -3.652127 -10.705876 -0.761498 3.774971 -10.742979 -11.325096 -21.769611 7.396224 -49.065674 -50.865105 -7.906678 -179.962280 -64.601433 -179.785416 4.329292 -1.913857 -15.334037 -5.882102 9.861279 0.702590 -10.936859 -0.360573 7.156196 -0.000000 8.774814 -0.000001 -16.004269 18.194893 6.120208 -1.844032 2.498503 -2.507276 -10.163589 4.678941 4.621104 -20.975994 -0.000003 0.000001 -21.226255 2.451692 -3.593995 -0.000000 -0.000007 -0.000001 -1.362682 2.240797 -0.746322 -21.334887 0.584911 3.008321 -13.821197 -0.000001 0.000000 -23.887129 -0.249078 -0.839482 -61.221825 2.625008 -1.997109 -0.294025 1.679687 0.833255 -14.218194 0.093216 1.300579 -34.212006 -0.287561 0.967168 -20.033180 0.964536 1.212840 0.000000 -0.000001 -0.000000 -3.440386 0.788232 0.501655 -15.928164 -3.167305 2.999703 -6.338818 0.000001 0.000001 -18.123411 3.648177 -4.905662 -0.000005 0.000002 -0.000002 19.042986 18.669981 8.359468 30.187662 35.672470 -29.095201 -178.582092 68.707413 -178.695267 6.535904 7.991187 -1.011037 2.243538 -5.255033 -3.180155 14.282877 -0.826594 6.952497 -0.000002 -12.690592 0.000002 15.729942 -17.662989 2.682197 1.665664 -1.955919 -2.878296 4.727793 -4.170584 4.993919 11.020514 0.000003 -0.000000 12.109030 -3.735710 -2.866778 0.000000 -0.000000 0.000000 1.291984 -1.928548 -1.498087 14.800111 0.567468 3.865604 14.242553 -1.341736 -6.660647 19.631937 0.143927 -0.648243 49.548290 -0.853378 -6.555556 0.353029 -1.511150 -0.031939 20.222767 3.684307 2.316629 18.787245 0.000005 0.000001 10.751611 -0.479868 1.397904 0.000000 -0.000000 0.000000 3.273806 0.305948 -0.580109 21.486792 11.830363 2.266132 8.162917 0.000001 0.000000 18.399055 -3.798980 -4.940566 0.000003 0.000000 -0.000001 0.406272 8.378285 5.377869 0.121576 -0.409782 31.056780 -10.474616 13.358844 -25.849529 1.679704 -2.003370 -0.936860 0.000000 0.000000 0.000002 -18.495468 0.449188 -23.255676 0.158851 0.332724 36.544186 15.288162 -9.099255 -5.655038 -1.445127 1.019362 -0.695707 0.000000 -0.000000 -0.000001 
-4.590628 93.117615 4.080965 5.716955 0.151587 -7.785134 -4.600785 0.003912 -0.370538 -1.638968 -1.406224 -4.765379 -5.897765 -3.035601 7.955492 5.683956 -0.232708 11.853493 -1.167338 -2.822618 -3.804808 2.082504 -4.262930 -4.103074 0.000077 -0.000023 0.000006 -0.011499 0.081414 0.001075 0.711806 -3.631302 -10.704294 -0.747936 3.792925 -10.746974 -11.415710 -21.702904 7.324541 -49.057446 -50.865246 -8.002809 -179.906021 -64.665649 179.923904 4.136389 -2.012960 -15.560416 -5.882101 9.861278 0.702591 -10.936860 -0.360573 7.156196 -0.000000 8.774815 -0.000001 -16.132671 18.277113 6.035167 -1.844030 2.498502 -2.507274 -10.163589 4.678938 4.621102 -20.975996 -0.000005 0.000002 -21.226254 2.451692 -3.593995 0.000000 -0.000007 -0.000000 -1.362680 2.240796 -0.746320 -21.334887 0.584908 3.008322 -13.821197 -0.000002 0.000003 -23.887131 -0.249077 -0.839480 -61.294483 2.529802 -2.066246 -0.294024 1.679686 0.833257 -14.218192 0.093214 1.300580 -34.211998 -0.287564 0.967170 -20.033176 0.964536 1.212841 0.000000 0.000000 -0.000000 -3.440385 0.788232 0.501656 -15.928167 -3.167306 2.999703 -6.338817 -0.000001 0.000003 -18.123415 3.648176 -4.905662 -0.000006 0.000001 -0.000001 19.094791 18.662945 8.341819 30.113468 35.711403 -29.102383 -178.961563 68.697571 -178.930923 6.566401 8.077231 -1.586640 2.243540 -5.255032 -3.180157 14.282875 -0.826594 6.952495 -0.000001 -12.690591 0.000000 15.774372 -17.574648 2.726702 1.665665 -1.955919 -2.878296 4.727790 -4.170584 4.993918 11.020511 0.000002 -0.000001 12.109029 -3.735710 -2.866781 0.000001 -0.000000 0.000001 1.291985 -1.928548 -1.498088 14.800109 0.567469 3.865602 14.242553 -1.341734 -6.660650 19.631937 0.143928 -0.648244 49.447884 -0.863262 -6.453706 0.353027 -1.511150 -0.031941 20.222767 3.684307 2.316627 18.787245 0.000006 -0.000002 10.751610 -0.479867 1.397903 -0.000000 -0.000000 -0.000000 3.273805 0.305947 -0.580110 21.486792 11.830365 2.266131 8.162916 0.000002 -0.000000 18.399050 -3.798979 -4.940568 0.000003 -0.000000 -0.000001 0.553874 8.338342 5.583546 0.114681 -0.420204 30.883396 -10.646569 13.461750 -25.610020 1.682543 -2.015576 -0.952456 -0.000000 -0.000001 0.000002 -18.359549 0.525669 -23.288540 0.136300 0.295358 36.825291 15.170312 -9.062070 -5.956197 -1.442595 0.999644 -0.746943 0.000000 0.000000 -0.000001 
-4.685951 93.126450 4.204542 5.729859 0.169545 -7.735135 -4.616819 0.005672 -0.374887 -1.625276 -1.409237 -4.768552 -5.917778 -3.048831 7.948502 5.643500 -0.237825 11.789715 -1.133559 -2.793116 -3.822963 1.998168 -4.246149 -4.043232 0.000077 -0.000023 0.000006 -0.006686 0.071401 -0.002432 0.709096 -3.643088 -10.707289 -0.736039 3.792874 -10.751536 -11.477071 -21.692717 7.273387 -48.979809 -50.809772 -8.257378 -179.648743 -64.675117 179.605835 3.985722 -2.116280 -15.688864 -5.882100 9.861278 0.702587 -10.936859 -0.360575 7.156198 0.000000 8.774814 -0.000001 -16.121014 18.275696 6.031860 -1.844031 2.498502 -2.507274 -10.163589 4.678940 4.621104 -20.975992 -0.000004 0.000004 -21.226248 2.451694 -3.593992 -0.000000 -0.000006 0.000001 -1.362679 2.240797 -0.746322 -21.334887 0.584907 3.008322 -13.821193 -0.000003 0.000003 -23.887129 -0.249079 -0.839479 -61.312992 2.478537 -2.071553 -0.294024 1.679686 0.833255 -14.218190 0.093213 1.300580 -34.211998 -0.287563 0.967173 -20.033175 0.964537 1.212844 0.000000 0.000000 -0.000000 -3.440385 0.788232 0.501654 -15.928164 -3.167306 2.999707 -6.338817 -0.000002 0.000003 -18.123411 3.648175 -4.905657 -0.000005 0.000001 -0.000002 19.157261 18.699238 8.330638 29.970886 35.703522 -29.267977 -179.546890 68.784035 -179.441681 6.545825 8.282034 -1.938186 2.243539 -5.255033 -3.180155 14.282875 -0.826595 6.952497 -0.000001 -12.690588 0.000001 15.817739 -17.530758 2.749676 1.665663 -1.955919 -2.878297 4.727795 -4.170585 4.993919 11.020513 0.000001 -0.000000 12.109030 -3.735710 -2.866779 0.000000 0.000002 -0.000000 1.291985 -1.928548 -1.498088 14.800114 0.567469 3.865605 14.242553 -1.341735 -6.660648 19.631939 0.143925 -0.648242 49.431980 -0.837485 -6.409452 0.353029 -1.511149 -0.031939 20.222771 3.684304 2.316629 18.787247 0.000003 0.000000 10.751610 -0.479869 1.397904 0.000000 0.000000 0.000000 3.273804 0.305946 -0.580109 21.486790 11.830360 2.266131 8.162918 0.000001 0.000000 18.399054 -3.798980 -4.940566 0.000003 0.000000 -0.000001 0.608948 8.310076 5.638466 0.111358 -0.430823 30.833084 -10.792414 13.551699 -25.513523 1.677735 -2.029966 -0.894384 -0.000000 0.000000 0.000002 -18.321142 0.526895 -23.316107 0.133120 0.271597 36.967163 15.062637 -9.025705 -6.102833 -1.443084 0.975397 -0.750716 0.000000 0.000000 -0.000001 
-4.721840 93.118423 4.276376 5.743854 0.239965 -7.667526 -4.627117 0.017100 -0.387757 -1.625258 -1.424760 -4.771777 -5.934761 -3.066451 7.929904 5.605536 -0.235239 11.734282 -1.114358 -2.772003 -3.814666 1.918927 -4.284348 -3.968439 0.000077 -0.000023 0.000006 -0.003792 0.074784 -0.004703 0.702698 -3.639745 -10.698802 -0.723123 3.788388 -10.748803 -11.496907 -21.673187 7.237417 -48.921219 -50.788666 -8.428016 -179.456619 -64.723587 179.427261 3.897702 -2.243344 -15.828552 -5.882102 9.861279 0.702590 -10.936861 -0.360574 7.156197 0.000000 8.774813 -0.000002 -16.052320 18.267197 6.044850 -1.844031 2.498503 -2.507273 -10.163589 4.678940 4.621102 -20.975998 -0.000003 0.000001 -21.226254 2.451692 -3.593995 -0.000001 -0.000006 -0.000001 -1.362682 2.240797 -0.746322 -21.334890 0.584909 3.008319 -13.821197 -0.000002 0.000003 -23.887131 -0.249078 -0.839481 -61.321037 2.498993 -2.081256 -0.294025 1.679686 0.833254 -14.218194 0.093214 1.300579 -34.212006 -0.287565 0.967168 -20.033180 0.964534 1.212843 -0.000000 -0.000000 -0.000000 -3.440386 0.788232 0.501654 -15.928169 -3.167306 2.999704 -6.338818 -0.000001 0.000001 -18.123415 3.648176 -4.905662 -0.000006 -0.000000 -0.000003 19.199780 18.707598 8.299132 29.839224 35.718399 -29.375559 -179.920761 68.916496 -179.826965 6.567951 8.477233 -2.235674 2.243540 -5.255033 -3.180154 14.282879 -0.826593 6.952497 -0.000001 -12.690591 0.000001 15.854650 -17.472286 2.773157 1.665664 -1.955920 -2.878296 4.727793 -4.170584 4.993919 11.020512 0.000003 0.000000 12.109032 -3.735709 -2.866779 0.000000 0.000000 -0.000000 1.291985 -1.928548 -1.498088 14.800113 0.567468 3.865604 14.242553 -1.341733 -6.660647 19.631941 0.143925 -0.648242 49.497772 -0.818963 -6.375204 0.353029 -1.511150 -0.031940 20.222769 3.684306 2.316628 18.787245 0.000005 0.000001 10.751611 -0.479868 1.397905 0.000000 0.000000 -0.000000 3.273806 0.305947 -0.580110 21.486795 11.830362 2.266131 8.162919 0.000002 -0.000000 18.399055 -3.798979 -4.940567 0.000002 -0.000000 -0.000001 0.610224 8.237120 5.569462 0.108669 -0.414136 30.916611 -10.929842 13.578144 -25.494574 1.674330 -2.043917 -0.842708 0.000000 0.000001 0.000002 -18.335047 0.468597 -23.369404 0.133508 0.255716 37.091805 15.037695 -9.019988 -6.214310 -1.443341 0.967401 -0.739985 0.000000 0.000000 -0.000001 
